<svg version="1.1" preserveAspectRatio="none" xmlns="http://www.w3.org/2000/svg" width="500" height="500" viewBox="0 0 500 500"><rect width="100%" height="100%" fill="#FFFFFF" fill-opacity="1"/><svg viewBox="33.5335 144.9402 388.6022 120" width="417" height="128.76921437912603" x="41.5px" y="185.6154px" xmlns="http://www.w3.org/2000/svg" xmlns:xlink="http://www.w3.org/1999/xlink" preserveAspectRatio="none"><defs></defs><style>.companyName {fill:#182145;fill-opacity:1;}.icon1 {fill:#182145;fill-opacity:1;}.icon2 {fill:#E35B34;fill-opacity:1;}.icon3 {fill:#E3D454;fill-opacity:1;}.icon3-str {stroke:#E3D454;stroke-opacity:1;}</style><g opacity="1" transform="rotate(0 33.5335 144.9402)">
<svg width="123.0024" height="120" x="33.5335" y="144.9402" version="1.1" preserveAspectRatio="none" viewBox="0.5 2 127 123.89999389648438">
  <g transform="matrix(1 0 0 1 0 0)" class="icon1"><g><path d="M126.7,8.3c-0.4,0-0.8,0.3-0.8,0.8v10.8c0,0.4,0.3,0.8,0.8,0.8c0.4,0,0.8-0.3,0.8-0.8V9.1C127.5,8.6,127.2,8.3,126.7,8.3z"></path><path d="M126.7,22.6c-0.4,0-0.8,0.3-0.8,0.8v3.5c0,0.4,0.3,0.8,0.8,0.8c0.4,0,0.8-0.3,0.8-0.8v-3.5C127.5,23,127.2,22.6,126.7,22.6   z"></path><path d="M7.4,18.3l-1.6-1.6c-0.3-0.3-0.8-0.3-1.1,0c-0.3,0.3-0.3,0.8,0,1.1l1.6,1.6c0.1,0.1,0.3,0.2,0.5,0.2c0.2,0,0.4-0.1,0.5-0.2   C7.7,19,7.7,18.6,7.4,18.3z"></path><path d="M11.1,21.9c-0.3-0.3-0.8-0.3-1.1,0c-0.3,0.3-0.3,0.8,0,1.1l1.6,1.6c0.1,0.1,0.3,0.2,0.5,0.2c0.2,0,0.4-0.1,0.5-0.2   c0.3-0.3,0.3-0.8,0-1.1L11.1,21.9z"></path><path d="M6.4,21.9l-1.6,1.6c-0.3,0.3-0.3,0.8,0,1.1c0.1,0.1,0.3,0.2,0.5,0.2c0.2,0,0.4-0.1,0.5-0.2L7.4,23c0.3-0.3,0.3-0.8,0-1.1   C7.1,21.6,6.7,21.6,6.4,21.9z"></path><path d="M12.7,16.6c-0.3-0.3-0.8-0.3-1.1,0L10,18.3c-0.3,0.3-0.3,0.8,0,1.1c0.1,0.1,0.3,0.2,0.5,0.2c0.2,0,0.4-0.1,0.5-0.2l1.6-1.6   C13,17.4,13,16.9,12.7,16.6z"></path><path d="M24.9,117.7c-0.3-0.3-0.8-0.3-1.1,0c-0.3,0.3-0.3,0.8,0,1.1l1.6,1.6c0.1,0.1,0.3,0.2,0.5,0.2c0.2,0,0.4-0.1,0.5-0.2   c0.3-0.3,0.3-0.8,0-1.1L24.9,117.7z"></path><path d="M30.2,123c-0.3-0.3-0.8-0.3-1.1,0c-0.3,0.3-0.3,0.8,0,1.1l1.6,1.6c0.1,0.1,0.3,0.2,0.5,0.2c0.2,0,0.4-0.1,0.5-0.2   c0.3-0.3,0.3-0.8,0-1.1L30.2,123z"></path><path d="M25.5,123l-1.6,1.6c-0.3,0.3-0.3,0.8,0,1.1c0.1,0.1,0.3,0.2,0.5,0.2c0.2,0,0.4-0.1,0.5-0.2l1.6-1.6c0.3-0.3,0.3-0.8,0-1.1   C26.3,122.7,25.8,122.7,25.5,123z"></path><path d="M30.8,117.7l-1.6,1.6c-0.3,0.3-0.3,0.8,0,1.1c0.1,0.1,0.3,0.2,0.5,0.2c0.2,0,0.4-0.1,0.5-0.2l1.6-1.6   c0.3-0.3,0.3-0.8,0-1.1C31.6,117.4,31.1,117.4,30.8,117.7z"></path><path d="M115,115.1c-0.3-0.3-0.8-0.3-1.1,0c-0.3,0.3-0.3,0.8,0,1.1l1.6,1.6c0.1,0.1,0.3,0.2,0.5,0.2c0.2,0,0.4-0.1,0.5-0.2   c0.3-0.3,0.3-0.8,0-1.1L115,115.1z"></path><path d="M120.3,120.4c-0.3-0.3-0.8-0.3-1.1,0c-0.3,0.3-0.3,0.8,0,1.1l1.6,1.6c0.1,0.1,0.3,0.2,0.5,0.2c0.2,0,0.4-0.1,0.5-0.2   c0.3-0.3,0.3-0.8,0-1.1L120.3,120.4z"></path><path d="M115.6,120.4l-1.6,1.6c-0.3,0.3-0.3,0.8,0,1.1c0.1,0.1,0.3,0.2,0.5,0.2c0.2,0,0.4-0.1,0.5-0.2l1.6-1.6   c0.3-0.3,0.3-0.8,0-1.1C116.3,120.1,115.9,120.1,115.6,120.4z"></path><path d="M120.9,115.1l-1.6,1.6c-0.3,0.3-0.3,0.8,0,1.1c0.1,0.1,0.3,0.2,0.5,0.2c0.2,0,0.4-0.1,0.5-0.2l1.6-1.6   c0.3-0.3,0.3-0.8,0-1.1C121.6,114.8,121.2,114.8,120.9,115.1z"></path><path d="M6.9,111.9c-2,0-3.5,1.6-3.5,3.5c0,2,1.6,3.5,3.5,3.5c2,0,3.5-1.6,3.5-3.5C10.4,113.5,8.8,111.9,6.9,111.9z M6.9,117.5   c-1.1,0-2-0.9-2-2c0-1.1,0.9-2,2-2s2,0.9,2,2C8.9,116.6,8,117.5,6.9,117.5z"></path><path d="M3.7,3.6h12.9c0.4,0,0.8-0.3,0.8-0.8c0-0.4-0.3-0.8-0.8-0.8H3.7c-0.4,0-0.8,0.3-0.8,0.8C2.9,3.2,3.2,3.6,3.7,3.6z"></path><path d="M20.8,3.6H25c0.4,0,0.8-0.3,0.8-0.8c0-0.4-0.3-0.8-0.8-0.8h-4.2c-0.4,0-0.8,0.3-0.8,0.8C20.1,3.2,20.4,3.6,20.8,3.6z"></path><path d="M25,6.5h-9c-0.4,0-0.8,0.3-0.8,0.8S15.6,8,16,8h9c0.4,0,0.8-0.3,0.8-0.8S25.4,6.5,25,6.5z"></path><path d="M12.9,7.3c0-0.4-0.3-0.8-0.8-0.8H9.2c-0.4,0-0.8,0.3-0.8,0.8S8.8,8,9.2,8h2.9C12.5,8,12.9,7.7,12.9,7.3z"></path><path d="M64.4,112.7c0-0.4-0.3-0.8-0.8-0.8H50.7c-0.4,0-0.8,0.3-0.8,0.8c0,0.4,0.3,0.8,0.8,0.8h12.9   C64.1,113.4,64.4,113.1,64.4,112.7z"></path><path d="M72.1,111.9h-4.2c-0.4,0-0.8,0.3-0.8,0.8c0,0.4,0.3,0.8,0.8,0.8h4.2c0.4,0,0.8-0.3,0.8-0.8   C72.8,112.2,72.5,111.9,72.1,111.9z"></path><path d="M72.1,116.3h-9c-0.4,0-0.8,0.3-0.8,0.8c0,0.4,0.3,0.8,0.8,0.8h9c0.4,0,0.8-0.3,0.8-0.8C72.8,116.7,72.5,116.3,72.1,116.3z"></path><path d="M59.2,116.3h-2.9c-0.4,0-0.8,0.3-0.8,0.8c0,0.4,0.3,0.8,0.8,0.8h2.9c0.4,0,0.8-0.3,0.8-0.8   C59.9,116.7,59.6,116.3,59.2,116.3z"></path><path d="M36.7,14.5l11.5,5.1c0.1,0,0.2,0.1,0.3,0.1c0.1,0,0.1,0,0.2,0c0,0,0.1,0,0.1,0h61.2c2.9,0,5.3-2.4,5.3-5.3v-1.2   c0-2.9-2.4-5.3-5.3-5.3h-4.7c0,0,0,0,0,0s0,0,0,0h-5.9c0,0,0,0,0,0c0,0,0,0,0,0H48.9c-0.1,0-0.1,0-0.2,0c-0.2,0-0.3,0-0.5,0   l-11.5,5.2c-0.3,0.1-0.4,0.4-0.4,0.7C36.2,14.1,36.4,14.3,36.7,14.5z M106.1,9.4h4c2.1,0,3.8,1.7,3.8,3.8v1.2   c0,2.1-1.7,3.8-3.8,3.8h-4V9.4z M100.2,9.4h4.4v8.8h-4.4V9.4z M49.6,9.4h49.1v8.8H49.6V9.4z M48.1,9.6v8.3l-9.3-4.1L48.1,9.6z"></path><path d="M78.4,13h-4c-0.4,0-0.8,0.3-0.8,0.8c0,0.4,0.3,0.8,0.8,0.8h4c0.4,0,0.8-0.3,0.8-0.8C79.2,13.4,78.8,13,78.4,13z"></path><path d="M58.3,13h-2.2c-0.4,0-0.8,0.3-0.8,0.8c0,0.4,0.3,0.8,0.8,0.8h2.2c0.4,0,0.8-0.3,0.8-0.8C59.1,13.4,58.8,13,58.3,13z"></path><path d="M68.4,13h-4c-0.4,0-0.8,0.3-0.8,0.8c0,0.4,0.3,0.8,0.8,0.8h4c0.4,0,0.8-0.3,0.8-0.8C69.1,13.4,68.8,13,68.4,13z"></path><path d="M88.5,13h-4c-0.4,0-0.8,0.3-0.8,0.8c0,0.4,0.3,0.8,0.8,0.8h4c0.4,0,0.8-0.3,0.8-0.8C89.2,13.4,88.9,13,88.5,13z"></path><path d="M123.3,34h-3.8c-0.1,0-0.1,0-0.2,0c-0.9-0.5-2-0.9-3.4-0.7c0-0.1-0.1-0.1-0.1-0.2c-1.6-1.3-3.2-1.9-6.4-1.4   c-14-5.7-30-5.4-44,0.8c-1.3-0.9-3-0.9-4.2,0c-14-6.2-30-6.4-44-0.8c-3.2-0.5-4.7,0.2-6.4,1.4c-0.1,0-0.1,0.1-0.1,0.2   c-1.5-0.1-2.5,0.2-3.4,0.7c-0.1,0-0.1,0-0.2,0H3.3c-1.5,0-2.8,1.3-2.8,2.8v64.4c0,1.5,1.3,2.8,2.8,2.8h56c0.9,0,1.6-0.4,2.1-1   c0.1,0,0.3-0.1,0.4-0.2c0.9-0.7,2-0.7,2.9,0c0.1,0.1,0.2,0.1,0.4,0.1c0.5,0.6,1.3,1,2.2,1h15.3v3.3c0,0.4,0.3,0.7,0.6,0.7   c0,0,4.2,0.6,4.2,4v3.4c0,0.3,0.1,0.5,0.4,0.7c0.2,0.1,0.5,0.1,0.8,0c0.1,0,5.5-3.2,14.2,0.1c0.1,0,0.2,0,0.3,0   c0.2,0,0.3,0,0.4-0.1c0.2-0.1,0.3-0.4,0.3-0.6v-4.1c-0.1-2.1,2.6-3.3,2.7-3.4c0.3-0.1,0.4-0.4,0.4-0.7v-3.3h16.4   c1.5,0,2.8-1.3,2.8-2.8V36.8C126.2,35.3,124.9,34,123.3,34z M12.1,34.1L12.1,34.1c1.2-0.9,2.3-1.3,4.5-1V97   c-1.8,0.5-3.3,1.4-4.5,2.1V34.1z M5.4,102.6H3.3c-0.7,0-1.3-0.6-1.3-1.3V36.8c0-0.7,0.6-1.3,1.3-1.3h2.2c-0.1,0.1-0.2,0.3-0.2,0.5   v66.5C5.4,102.5,5.4,102.5,5.4,102.6z M6.9,36.3c1.1-1,2.1-1.7,3.7-1.5v64.4c-1.4,0.4-2.6,1-3.7,1.7V36.3z M59.3,102.6H7.2   c1-0.7,2.1-1.3,3.5-1.8c0.1,0.2,0.2,0.3,0.4,0.4c0.1,0.1,0.2,0.1,0.3,0.1c0.2,0,0.3-0.1,0.4-0.1c1.5-1.1,3.2-2,4.8-2.6v0.5   c0,0.2,0.1,0.5,0.3,0.6c0.2,0.1,0.5,0.2,0.7,0.1c13-5,28.5-4.1,42.6,2.4C60,102.4,59.7,102.6,59.3,102.6z M60.7,36.8v63.9   c-8.2-3.7-16.9-5.6-25.3-5.6c-6,0-11.9,1-17.3,2.9v-0.5V33c13.6-5.4,29-5.1,42.6,0.9V36.8z M64.5,36.8v64.2c-0.8-0.2-1.6-0.2-2.3,0   V36.8v-3.2c0.7-0.4,1.6-0.4,2.3,0V36.8z M110.1,33.1c2.2-0.3,3.3,0.1,4.5,1v0v65c-1.1-0.7-2.7-1.6-4.5-2.1V33.1z M82.7,102.6H67.3   c-0.3,0-0.6-0.1-0.9-0.4c5.3-2.4,10.7-4.1,16.2-4.9V102.6z M105.4,106.9c-1,0.5-3.2,2-3.1,4.5v3c-2.7-0.9-5.1-1.2-7.2-1.2   c-2.9,0-5,0.6-6.2,1.1v-2.2c0-3.3-2.9-4.9-4.8-5.4V92.9c0-0.2,0.1-0.4,0.3-0.4c1.2,0,2.5,1,2.9,2.2c0.1,0.2,0.1,0.4,0.1,0.7   c0,0,0,0,0,0v3.8c0,0.4,0.3,0.8,0.8,0.8c0.4,0,0.8-0.3,0.8-0.8v-3.8c0,0,0,0,0,0v-15c0,0,0-0.1,0-0.2c0-0.1,0-0.3,0.5-0.8   c0.3-0.3,0.7-0.5,1.1-0.5c0.2,0,0.6,0,0.8,0.3c0,0,0,0,0.1,0.1c0.3,0.3,0.4,0.6,0.4,1c0,0,0,0,0,0.1c0,0,0,0.1,0,0.1v11.2   c0,0,0,0,0,0v4.6c0,0.4,0.3,0.8,0.8,0.8c0.4,0,0.8-0.3,0.8-0.8v-4.6c0,0,0,0,0,0c0-0.9,0.7-1.6,1.5-1.6c0.4,0,0.8,0.2,1,0.5   c0.3,0.3,0.4,0.7,0.4,1.1l0,0c0,0,0,0,0,0v2.7c0,0.4,0.3,0.8,0.8,0.8c0.4,0,0.8-0.3,0.8-0.8v-2.7c0,0,0,0,0,0l0,0   c0-0.9,0.7-1.6,1.5-1.6c0.4,0,0.8,0.2,1,0.5c0.3,0.3,0.4,0.7,0.4,1.1v2.4c0,0,0,0,0,0v0.2c0,0.4,0.3,0.8,0.8,0.8   c0.4,0,0.8-0.3,0.8-0.8v-0.3c0,0,0,0,0,0c0-0.9,0.7-1.6,1.5-1.6c0.4,0,0.8,0.2,1.1,0.5c0.3,0.3,0.4,0.7,0.4,1.1V106.9z M106,92   c-1-1-2.5-1.2-3.6-0.5c-0.1-0.7-0.4-1.4-0.9-1.9c-0.6-0.6-1.3-0.9-2.1-0.9c-0.9,0-1.7,0.4-2.2,1c0,0-0.1-0.1-0.1-0.1   c-0.9-1-2.5-1.2-3.6-0.5v-1.8c1.1,0.2,2.2,0.4,3.4,0.7c0.1,0,0.1,0,0.2,0c0.3,0,0.6-0.2,0.7-0.6c0.1-0.4-0.1-0.8-0.5-0.9   c-1.3-0.3-2.6-0.6-3.8-0.8v-4.5c3.9,0.4,7.5,1.2,10.9,2.5c0.1,0,0.2,0.1,0.3,0.1c0.3,0,0.6-0.2,0.7-0.5c0.2-0.4,0-0.8-0.4-1   c-3.6-1.4-7.5-2.3-11.6-2.7c-0.1-0.5-0.4-1-0.7-1.3c0,0,0-0.1-0.1-0.1c-0.5-0.5-1.3-0.8-2-0.8c-0.8,0-1.6,0.4-2.2,1   c-0.4,0.4-0.6,0.7-0.7,1C77.1,79.7,69,83,68.7,83.1c-0.4,0.2-0.6,0.6-0.4,1c0.1,0.3,0.4,0.5,0.7,0.5c0.1,0,0.2,0,0.3-0.1   c0.1,0,8-3.2,18.2-3.5v4.2c-3.8,0-7.6,0.7-11.9,2.1c-0.4,0.1-0.6,0.6-0.5,0.9c0.1,0.3,0.4,0.5,0.7,0.5c0.1,0,0.2,0,0.2,0   c4.1-1.3,7.8-2,11.4-2v5.5c-0.8-0.7-1.9-1.2-3-1.2c-1,0-1.8,0.8-1.8,1.9v1.3c0,0,0,0,0,0v1.5c-5.6,0.9-11.2,2.5-16.6,5V36.8v-3   c13.5-6,29-6.3,42.6-0.9v64.6V98c-0.5-0.2-1.1-0.4-1.7-0.6v-1.9c0,0,0,0,0,0v-1.3C106.9,93.3,106.6,92.5,106,92z M106.9,102.6V99   c0.8,0.2,1.5,0.5,2.2,0.8c0.2,0.1,0.5,0.1,0.7-0.1c0.2-0.1,0.3-0.4,0.3-0.6v-0.5c1.6,0.6,3.3,1.4,4.8,2.6c0.1,0.1,0.3,0.1,0.4,0.1   c0.1,0,0.2,0,0.3-0.1c0.2-0.1,0.3-0.2,0.4-0.4c1.4,0.4,2.5,1,3.5,1.8H106.9z M119.8,100.9c-1.1-0.7-2.3-1.3-3.7-1.7V34.8   c1.7-0.2,2.6,0.5,3.7,1.5V100.9z M124.6,101.3c0,0.7-0.6,1.3-1.3,1.3h-2.1c0,0,0-0.1,0-0.1V36c0-0.2-0.1-0.3-0.2-0.5h2.2   c0.7,0,1.3,0.6,1.3,1.3V101.3z"></path><path d="M21.7,37.1c-0.4,0.2-0.6,0.6-0.4,1c0.2,0.4,0.6,0.6,1,0.4c17-6.6,34.9,0.6,35.1,0.7c0.1,0,0.2,0.1,0.3,0.1   c0.3,0,0.6-0.2,0.7-0.5c0.2-0.4,0-0.8-0.4-1C57.8,37.7,39.3,30.3,21.7,37.1z"></path><path d="M58,42.8c-0.2-0.1-18.7-7.5-36.2-0.7c-0.4,0.2-0.6,0.6-0.4,1c0.2,0.4,0.6,0.6,1,0.4c17-6.6,34.9,0.6,35.1,0.7   c0.1,0,0.2,0.1,0.3,0.1c0.3,0,0.6-0.2,0.7-0.5C58.5,43.4,58.3,42.9,58,42.8z"></path><path d="M58,47.8c-0.2-0.1-18.7-7.5-36.2-0.7c-0.4,0.2-0.6,0.6-0.4,1c0.2,0.4,0.6,0.6,1,0.4c17-6.6,34.9,0.6,35.1,0.7   c0.1,0,0.2,0.1,0.3,0.1c0.3,0,0.6-0.2,0.7-0.5C58.5,48.4,58.3,47.9,58,47.8z"></path><path d="M58,52.7c-0.5-0.2-12.3-5-26.2-3.2c-0.4,0.1-0.7,0.4-0.7,0.8c0.1,0.4,0.4,0.7,0.8,0.7c13.5-1.7,25.3,3.1,25.4,3.1   c0.1,0,0.2,0.1,0.3,0.1c0.3,0,0.6-0.2,0.7-0.5C58.5,53.3,58.3,52.9,58,52.7z"></path><path d="M58,63.2c-0.2-0.1-18.7-7.5-36.2-0.7c-0.4,0.2-0.6,0.6-0.4,1c0.2,0.4,0.6,0.6,1,0.4c17-6.6,34.9,0.6,35.1,0.7   c0.1,0,0.2,0.1,0.3,0.1c0.3,0,0.6-0.2,0.7-0.5C58.5,63.8,58.3,63.4,58,63.2z"></path><path d="M58,68.2c-0.2-0.1-18.7-7.5-36.2-0.7c-0.4,0.2-0.6,0.6-0.4,1c0.2,0.4,0.6,0.6,1,0.4c17-6.6,34.9,0.6,35.1,0.7   c0.1,0,0.2,0.1,0.3,0.1c0.3,0,0.6-0.2,0.7-0.5C58.5,68.8,58.3,68.3,58,68.2z"></path><path d="M58,73.1c-0.2-0.1-18.7-7.5-36.2-0.7c-0.4,0.2-0.6,0.6-0.4,1c0.2,0.4,0.6,0.6,1,0.4c17-6.6,34.9,0.6,35.1,0.7   c0.1,0,0.2,0.1,0.3,0.1c0.3,0,0.6-0.2,0.7-0.5C58.5,73.7,58.3,73.3,58,73.1z"></path><path d="M58,78.1c-0.2-0.1-18.7-7.5-36.2-0.7c-0.4,0.2-0.6,0.6-0.4,1c0.2,0.4,0.6,0.6,1,0.4c17-6.6,34.9,0.6,35.1,0.7   c0.1,0,0.2,0.1,0.3,0.1c0.3,0,0.6-0.2,0.7-0.5C58.5,78.7,58.3,78.3,58,78.1z"></path><path d="M58,83.1c-0.2-0.1-18.7-7.5-36.2-0.7c-0.4,0.2-0.6,0.6-0.4,1c0.2,0.4,0.6,0.6,1,0.4c17-6.6,34.9,0.6,35.1,0.7   c0.1,0,0.2,0.1,0.3,0.1c0.3,0,0.6-0.2,0.7-0.5C58.5,83.7,58.3,83.3,58,83.1z"></path><path d="M51.1,87.3c-7.6-2.5-14.3-2.7-21.7-0.8c-0.4,0.1-0.6,0.5-0.5,0.9c0.1,0.4,0.5,0.6,0.9,0.5c7.2-1.9,13.4-1.6,20.9,0.8   c0.1,0,0.2,0,0.2,0c0.3,0,0.6-0.2,0.7-0.5C51.7,87.8,51.5,87.4,51.1,87.3z"></path><path d="M104.9,37.1c-17.5-6.8-36.1,0.6-36.2,0.7c-0.4,0.2-0.6,0.6-0.4,1c0.1,0.3,0.4,0.5,0.7,0.5c0.1,0,0.2,0,0.3-0.1   c0.2-0.1,18.1-7.3,35.1-0.7c0.4,0.1,0.8,0,1-0.4C105.5,37.7,105.3,37.2,104.9,37.1z"></path><path d="M104.9,42.1c-17.5-6.8-36.1,0.6-36.2,0.7c-0.4,0.2-0.6,0.6-0.4,1c0.1,0.3,0.4,0.5,0.7,0.5c0.1,0,0.2,0,0.3-0.1   c0.2-0.1,18.1-7.3,35.1-0.7c0.4,0.2,0.8,0,1-0.4C105.5,42.7,105.3,42.2,104.9,42.1z"></path><path d="M104.9,47.1c-17.5-6.8-36.1,0.6-36.2,0.7c-0.4,0.2-0.6,0.6-0.4,1c0.1,0.3,0.4,0.5,0.7,0.5c0.1,0,0.2,0,0.3-0.1   c0.2-0.1,18.1-7.3,35.1-0.7c0.4,0.1,0.8,0,1-0.4C105.5,47.6,105.3,47.2,104.9,47.1z"></path><path d="M69,54.2c0.1,0,0.2,0,0.3-0.1c0.1,0,11.9-4.8,25.4-3.1c0.4,0,0.8-0.2,0.8-0.7c0.1-0.4-0.2-0.8-0.7-0.8   c-13.9-1.8-25.7,3-26.2,3.2c-0.4,0.2-0.6,0.6-0.4,1C68.4,54,68.7,54.2,69,54.2z"></path><path d="M104.9,62.5c-17.5-6.8-36.1,0.6-36.2,0.7c-0.4,0.2-0.6,0.6-0.4,1c0.1,0.3,0.4,0.5,0.7,0.5c0.1,0,0.2,0,0.3-0.1   c0.2-0.1,18.1-7.3,35.1-0.7c0.4,0.1,0.8,0,1-0.4C105.5,63.1,105.3,62.7,104.9,62.5z"></path><path d="M104.9,67.5c-17.5-6.8-36.1,0.6-36.2,0.7c-0.4,0.2-0.6,0.6-0.4,1c0.1,0.3,0.4,0.5,0.7,0.5c0.1,0,0.2,0,0.3-0.1   c0.2-0.1,18.1-7.3,35.1-0.7c0.4,0.2,0.8,0,1-0.4C105.5,68.1,105.3,67.6,104.9,67.5z"></path><path d="M104.9,72.4c-17.5-6.8-36.1,0.6-36.2,0.7c-0.4,0.2-0.6,0.6-0.4,1c0.1,0.3,0.4,0.5,0.7,0.5c0.1,0,0.2,0,0.3-0.1   c0.2-0.1,18.1-7.3,35.1-0.7c0.4,0.1,0.8,0,1-0.4C105.5,73,105.3,72.6,104.9,72.4z"></path><path d="M104.9,77.4c-17.5-6.8-36.1,0.6-36.2,0.7c-0.4,0.2-0.6,0.6-0.4,1c0.1,0.3,0.4,0.5,0.7,0.5c0.1,0,0.2,0,0.3-0.1   c0.2-0.1,18.1-7.3,35.1-0.7c0.4,0.1,0.8,0,1-0.4C105.5,78,105.3,77.6,104.9,77.4z"></path></g></g>
</svg>
</g><g opacity="1" transform="rotate(0 186.5359 144.9402)">
<svg width="235.5998" height="120" x="186.5359" y="144.9402" version="1.1" preserveAspectRatio="none" viewBox="1.04 -27.28 157.68 80.32">
  <g transform="matrix(1 0 0 1 0 0)" class="companyName"><path id="id-D6z1nYkh12" d="M14.48-26.64L14.48-26.64Q18.60-26.64 21.58-24.72Q24.56-22.80 26.12-19.76Q27.68-16.72 27.68-13.36L27.68-13.36Q27.68-7.52 24.06-3.84Q20.44-0.16 14.44 0L14.44 0L1.28 0L1.04-1.28Q2.20-2.04 4.44-2.92L4.44-2.92L4.44-23.92L1.60-24.28L1.64-26.32Q7.40-26.64 14.48-26.64ZM13.56-3.32L13.56-3.32Q17-3.32 19.14-6.08Q21.28-8.84 21.28-13.12L21.28-13.12Q21.28-16.44 19.90-19.32Q18.52-22.20 16.32-23.52L16.32-23.52L10.52-22.92L10.52-3.80Q12.16-3.32 13.56-3.32Z M38.76-2.56L42.44-2.04L42.40 0L29.52 0L29.28-1.28Q30.44-2.04 32.68-2.92L32.68-2.92L32.68-23.84L29.60-24.28L29.64-26.32L41.88-26.32L42.12-25.04Q40.64-24.16 38.76-23.40L38.76-23.40L38.76-2.56Z M70.04-10.20L67-9.56L67-2.76L58.48 0.80L57.28 0.84Q52.60 0.84 49.50-1.14Q46.40-3.12 44.98-6.20Q43.56-9.28 43.56-12.64L43.56-12.64Q43.56-16.44 45.26-19.76Q46.96-23.08 50.26-25.10Q53.56-27.12 58.16-27.12L58.16-27.12Q63.24-27.12 66.68-24.68L66.68-24.68L66.72-23.88Q66.72-21.04 65.84-17.88L65.84-17.88L62.20-17.88L61.24-22.36Q58.20-23.64 54.88-23.64L54.88-23.64L53.92-23.60Q51.84-22.12 50.80-19.40Q49.76-16.68 49.76-13.44L49.76-13.44Q49.76-8.96 52.02-6.06Q54.28-3.16 57.92-3.12L57.92-3.12Q59.24-3.08 61.40-3.44L61.40-3.44L61.40-8.96Q59.28-9.72 57.40-10.76L57.40-10.76L57.64-12.12L70-12.12L70.04-10.20Z M80.24-2.56L83.92-2.04L83.88 0L71 0L70.76-1.28Q71.92-2.04 74.16-2.92L74.16-2.92L74.16-23.84L71.08-24.28L71.12-26.32L83.36-26.32L83.60-25.04Q82.12-24.16 80.24-23.40L80.24-23.40L80.24-2.56Z M96.76-26.40L109.24-26.56L109.28-25.40Q109.28-21.28 108.60-18.12L108.60-18.12L105.40-18.12L104.80-23.16L99.76-23.56L99.76-2.64L103.84-2.04L103.80 0L89.84 0L89.60-1.28Q90.48-1.84 93.68-3.08L93.68-3.08L93.68-23.56L88.60-23.16L88-18.12L84.80-18.12Q84.12-21.28 84.12-25.40L84.12-25.40L84.16-26.56L96.76-26.40Z M133.80-2.44L136.64-2.04L136.60 0L124 0L123.76-1.28Q124.88-1.96 127.24-2.96L127.24-2.96L125.56-7.28L116.04-7.28L114.28-2.56L117.96-2.04L117.92 0L107.04 0L106.80-1.28Q108-2.04 110.12-2.88L110.12-2.88L118.96-24.60L118.48-25.84L123.72-27.28L133.80-2.44ZM117.20-10.32L124.40-10.32L120.80-19.76L117.20-10.32Z M158.72-9.20L158.72-7.76Q158.72-2.96 158.20 0L158.20 0L136.44 0L136.20-1.28Q137.36-2.04 139.60-2.92L139.60-2.92L139.60-23.84L136.52-24.28L136.56-26.32L148.80-26.32L149.04-25.04Q147.56-24.16 145.68-23.40L145.68-23.40L145.68-3.36L153.68-4L155.24-9.52L158.72-9.20Z M36.24 17.08L35.56 18.48L19.04 18.48L21.44 20.28L21.44 24.52Q23.64 22.80 26 22.80L26 22.80Q28.96 22.80 31.18 25.22Q33.40 27.64 33.40 30.80L33.40 30.80Q33.40 35.92 27.04 40.20L27.04 40.20L23.24 36.16Q26.08 34.08 27.50 32.54Q28.92 31 28.92 29.56L28.92 29.56Q28.92 27.68 27.04 27.68L27.04 27.68Q24.64 27.68 21.44 31.48L21.44 31.48L21.44 40.92L19.88 41.60L16.04 39.44L16.04 35.76Q14.80 36.28 13.52 36.28L13.52 36.28Q9.92 36.28 6.88 33.78Q3.84 31.28 3.84 27.92L3.84 27.92Q3.84 25.20 5.76 23.34Q7.68 21.48 10.56 21.48L10.56 21.48L12.32 21.68L16.04 23.60L16.04 18.48L2.92 18.48L1.04 15.80L1.72 14.44L34.36 14.44L36.24 17.08ZM9.76 32.08L9.76 32.08Q10.24 32.24 10.96 32.24L10.96 32.24Q13.92 32.24 16.04 29.52L16.04 29.52L16.04 26.36Q14.56 25.68 13.20 25.68L13.20 25.68Q11.32 25.68 10.16 26.90Q9 28.12 9 29.76L9 29.76Q9 31.04 9.76 32.08Z M59.04 17.08L58.36 18.48L49.88 18.48L52.28 20.28L52.28 28.36L52.24 28.36L52.28 28.40L45.76 28.40Q43.32 28.40 42.04 29.50Q40.76 30.60 40.76 32.28L40.76 32.28Q40.76 34.08 42.32 35.56L42.32 35.56Q43.60 36.08 45.24 36.08L45.24 36.08Q47.44 36.08 49.60 35.14Q51.76 34.20 53.16 32.56L53.16 32.56L56.40 36.92Q54.76 39 52.52 39.98Q50.28 40.96 48.12 40.96L48.12 40.96Q45.36 40.96 42.44 39.54Q39.52 38.12 37.60 35.66Q35.68 33.20 35.68 30.28L35.68 30.28Q35.68 27.20 37.92 25.22Q40.16 23.24 44.64 23.24L44.64 23.24L47.04 23.24L47.04 18.48L34.32 18.48L32.44 15.80L33.12 14.44L57.12 14.44L59.04 17.08Z M59.44 53.04L52.32 46.68L48.52 48.56L45.24 45.24Q48.08 42.96 50.72 42.96L50.72 42.96Q52.96 42.96 55.40 45.12L55.40 45.12L61.48 50.88L59.44 53.04Z M81.84 17.08L81.16 18.48L72.68 18.48L75.08 20.28L75.08 28.36L75.04 28.36L75.08 28.40L68.56 28.40Q66.12 28.40 64.84 29.50Q63.56 30.60 63.56 32.28L63.56 32.28Q63.56 34.08 65.12 35.56L65.12 35.56Q66.40 36.08 68.04 36.08L68.04 36.08Q70.24 36.08 72.40 35.14Q74.56 34.20 75.96 32.56L75.96 32.56L79.20 36.92Q77.56 39 75.32 39.98Q73.08 40.96 70.92 40.96L70.92 40.96Q68.16 40.96 65.24 39.54Q62.32 38.12 60.40 35.66Q58.48 33.20 58.48 30.28L58.48 30.28Q58.48 27.20 60.72 25.22Q62.96 23.24 67.44 23.24L67.44 23.24L69.84 23.24L69.84 18.48L57.12 18.48L55.24 15.80L55.92 14.44L79.92 14.44L81.84 17.08Z M93.44 17.08L92.76 18.48L85.96 18.48L88.36 20.28L88.36 40.92L86.80 41.60L82.96 39.44L82.96 18.48L79.92 18.48L78.04 15.80L78.72 14.44L91.52 14.44L93.44 17.08Z"/></g>
</svg>
</g></svg></svg>